<svg width="40" height="40" viewBox="0 0 40 40" fill="none" xmlns="http://www.w3.org/2000/svg">
<path fill-rule="evenodd" clip-rule="evenodd" d="M19.8 39.6C30.7352 39.6 39.6 30.7352 39.6 19.8C39.6 8.86477 30.7352 0 19.8 0C8.86477 0 0 8.86477 0 19.8C0 30.7352 8.86477 39.6 19.8 39.6ZM19.8409 28.0159C11.4584 35.0209 4.66376 28.2263 11.6687 19.8437C4.66376 11.4612 11.4584 4.66659 19.8409 11.6716C28.2218 4.66659 35.0181 11.4612 28.0131 19.8437C35.0181 28.2199 28.2218 35.0209 19.8409 28.0159ZM23.9415 19.8437C23.9415 22.1085 22.1056 23.9444 19.8409 23.9444C17.5762 23.9444 15.7403 22.1085 15.7403 19.8437C15.7403 17.579 17.5762 15.7431 19.8409 15.7431C22.1056 15.7431 23.9415 17.579 23.9415 19.8437Z" fill="white"/>
</svg>
